<svg width="55" height="55" viewBox="0 0 55 55" xmlns="http://www.w3.org/2000/svg">
  <!-- White circular background -->
  <circle cx="27.5" cy="27.5" r="27.5" fill="white" />

  <!-- Scaled and translated group to center the path -->
  <g transform="scale(0.7) translate(10, 17)">
    <path d="M17.7181 21.5453H11.9435V0.887695H17.4741C21.1751 0.887695 24.0021 2.30494 25.5221 6.49547C26.3518 8.78243 26.6537 11.2232 26.6008 13.6487C26.5609 15.4906 26.3483 17.3889 25.4316 18.9986C24.2797 21.0204 22.3897 21.3456 20.3258 21.5453H17.7181ZM55 45.0612H49.0915V0.887695H54.9209V0H37.1449V0.887695H42.979V45.0612H38.0024C36.7612 45.0505 35.6817 44.55 35.3379 43.3616C35.3355 43.3539 35.3332 43.3459 35.3308 43.3378C34.6683 41.0673 34.8406 38.2661 34.7936 35.9229C34.7615 34.2975 34.5841 32.6767 34.2623 31.0609C33.8046 28.7666 32.7243 26.5589 30.8613 25.051C28.7986 23.3819 25.3733 22.4897 22.7123 22.0913C22.4962 22.0588 22.3027 22.0351 22.1183 22.0144C23.6638 21.8962 24.6086 21.6253 26.2504 21.1003C31.4568 19.434 34.5097 14.2341 32.994 8.84404C31.2744 2.73081 24.9148 0.00267792 18.9021 0.00267792C18.897 0.00267792 15.7035 0.00267792 11.9435 0.00267792H9.44656H5.82471H0L0 0.887695H5.82471V45.0692H0L0 45.9902H17.8011V45.0692H11.9435V22.4663H19.3046C20.3391 22.4663 21.1817 22.5199 22.1203 22.7625C23.3411 23.0781 24.452 23.3272 25.3518 24.1927C26.9148 25.6961 27.5652 28.1235 27.7892 30.1954C27.9391 31.5904 28.0249 33.0333 28.0468 34.5229C28.0679 36.0125 28.138 37.4553 28.2563 38.8496C28.4618 41.2946 29.4595 44.4708 32.5312 45.44C34.6585 46.1111 34.8841 45.9929 38.1848 45.9906H55V45.0612Z" fill="#3D3935"/>
  </g>
</svg>
